<svg xmlns="http://www.w3.org/2000/svg" fill="url(#linear-gradient)" width="28.5" height="27" viewBox="0 0 28.5 27">
  <defs>
    <linearGradient id="linear-gradient" x1="0.165" y1="0.95" x2="0.814" y2="0.239" gradientUnits="objectBoundingBox">
      <stop offset="0" stop-color="#ff512f"/>
      <stop offset="1" stop-color="#f09819"/>
    </linearGradient>
  </defs>
  <path id="Icon_material-account-balance-wallet" data-name="Icon material-account-balance-wallet" d="M31.5,27v1.5a3.009,3.009,0,0,1-3,3H7.5a3,3,0,0,1-3-3V7.5a3,3,0,0,1,3-3h21a3.009,3.009,0,0,1,3,3V9H18a3,3,0,0,0-3,3V24a3,3,0,0,0,3,3ZM18,24H33V12H18Zm6-3.75A2.25,2.25,0,1,1,26.25,18,2.247,2.247,0,0,1,24,20.25Z" transform="translate(-4.5 -4.5)"/>
</svg>
