<svg xmlns="http://www.w3.org/2000/svg" xmlns:xlink="http://www.w3.org/1999/xlink" width="165.557" height="24" viewBox="0 0 165.557 24">
  <defs>
    <linearGradient id="linear-gradient" x1="0.165" y1="0.95" x2="0.814" y2="0.239" gradientUnits="objectBoundingBox">
      <stop offset="0" stop-color="#ff512f"/>
      <stop offset="1" stop-color="#f09819"/>
    </linearGradient>
  </defs>
  <g id="Group_1" data-name="Group 1" transform="translate(-394.017 -107.564)">
    <path id="Icon_weather-moonrise" data-name="Icon weather-moonrise" d="M9.36,17.832a8.417,8.417,0,0,1,.7-3.384,8.649,8.649,0,0,1,1.86-2.784A9.018,9.018,0,0,1,14.7,9.792a8.391,8.391,0,0,1,3.4-.7h1.4a.333.333,0,0,1,.288.336l.048,1.08a5.776,5.776,0,0,0,1.692,4,5.645,5.645,0,0,0,3.936,1.752l1.02.084a.242.242,0,0,1,.276.276v1.212a8.661,8.661,0,0,1-.7,3.5H23.6A7.133,7.133,0,0,0,24.768,18.3a8.88,8.88,0,0,1-4.836-2.592,7.86,7.86,0,0,1-2.1-4.6,6.127,6.127,0,0,0-3.192,1.08,6.883,6.883,0,0,0-2.244,2.5,6.726,6.726,0,0,0-.792,3.156,6.475,6.475,0,0,0,1,3.5H10.08A8.863,8.863,0,0,1,9.36,17.832Zm.348,7.212a1.009,1.009,0,0,1,.336-.816,1.113,1.113,0,0,1,.828-.312h3.156L17.76,20.4a.341.341,0,0,1,.42,0l3.792,3.5H25.3a1.122,1.122,0,0,1,.828.336,1.081,1.081,0,0,1,.348.8A1.188,1.188,0,0,1,25.3,26.22H21.24a.71.71,0,0,1-.348-.084L18,23.412l-2.868,2.724a.609.609,0,0,1-.336.084H10.872a1.168,1.168,0,0,1-1.164-1.176Z" transform="translate(384.657 101.72)" fill="url(#linear-gradient)"/>
    <text id="FOLLOWRISE" transform="translate(418.574 107.564)" fill="#ff512f" font-size="20" font-family="Montserrat-Black, Montserrat" font-weight="800"><tspan x="0" y="19">FOLLOW</tspan><tspan y="19" fill="#707070" font-family="Montserrat-Light, Montserrat" font-weight="300">RISE</tspan></text>
  </g>
</svg>
