<svg xmlns="http://www.w3.org/2000/svg" xmlns:xlink="http://www.w3.org/1999/xlink" width="316.077" height="23.4" viewBox="0 0 316.077 23.4">
  <defs>
    <style>
      .cls-1 {
        fill: url(#linear-gradient);
      }

      .cls-2 {
        fill: #707070;
      }

      .cls-3 {
        fill: url(#linear-gradient);
      }
    </style>
    <linearGradient id="linear-gradient" x1="0.165" y1="0.95" x2="0.814" y2="0.239" gradientUnits="objectBoundingBox">
      <stop offset="0" stop-color="#ff512f"/>
      <stop offset="1" stop-color="#f09819"/>
    </linearGradient>
  </defs>
  <g id="Group_15" data-name="Group 15" transform="translate(-394.017 -108.014)">
    <path id="Icon_weather-moonrise" data-name="Icon weather-moonrise" class="cls-1" d="M9.36,17.832a8.417,8.417,0,0,1,.7-3.384,8.649,8.649,0,0,1,1.86-2.784A9.018,9.018,0,0,1,14.7,9.792a8.391,8.391,0,0,1,3.4-.7h1.4a.333.333,0,0,1,.288.336l.048,1.08a5.776,5.776,0,0,0,1.692,4,5.645,5.645,0,0,0,3.936,1.752l1.02.084a.242.242,0,0,1,.276.276v1.212a8.661,8.661,0,0,1-.7,3.5H23.6A7.133,7.133,0,0,0,24.768,18.3a8.88,8.88,0,0,1-4.836-2.592,7.86,7.86,0,0,1-2.1-4.6,6.127,6.127,0,0,0-3.192,1.08,6.883,6.883,0,0,0-2.244,2.5,6.726,6.726,0,0,0-.792,3.156,6.475,6.475,0,0,0,1,3.5H10.08A8.863,8.863,0,0,1,9.36,17.832Zm.348,7.212a1.009,1.009,0,0,1,.336-.816,1.113,1.113,0,0,1,.828-.312h3.156L17.76,20.4a.341.341,0,0,1,.42,0l3.792,3.5H25.3a1.122,1.122,0,0,1,.828.336,1.081,1.081,0,0,1,.348.8A1.188,1.188,0,0,1,25.3,26.22H21.24a.71.71,0,0,1-.348-.084L18,23.412l-2.868,2.724a.609.609,0,0,1-.336.084H10.872a1.168,1.168,0,0,1-1.164-1.176Z" transform="translate(384.657 101.72)"/>
    <path id="Path_4" data-name="Path 4" class="cls-2" d="M13.32,0,9.82-4.9A4.3,4.3,0,0,0,13.1-9.28c0-2.96-2.12-4.72-5.64-4.72H2.44V0H3.46V-4.58h4a9.883,9.883,0,0,0,1.36-.1L12.16,0ZM3.46-5.48v-7.6h4c3,0,4.6,1.38,4.6,3.8,0,2.4-1.6,3.8-4.6,3.8ZM16.84,0h1.02V-14H16.84Zm9.58.1c3.46,0,5.04-1.72,5.04-3.7,0-5.08-8.74-2.6-8.74-6.8,0-1.54,1.22-2.8,3.94-2.8a6.919,6.919,0,0,1,3.84,1.18l.38-.82a7.51,7.51,0,0,0-4.22-1.26c-3.44,0-4.96,1.74-4.96,3.72,0,5.16,8.74,2.64,8.74,6.84C30.44-2.02,29.2-.8,26.4-.8a6.657,6.657,0,0,1-4.62-1.76l-.46.76A7.177,7.177,0,0,0,26.42.1ZM35.94-.92V-6.66H43.4v-.9H35.94v-5.52h8.34V-14H34.92V0h9.66V-.92Z" transform="translate(513.574 126.564)"/>
    <path id="Path_3" data-name="Path 3" class="cls-3" d="M12.52,8.56V5H1.14V19H5.86V14.52H11.7V10.96H5.86V8.56Zm8.74,10.76c4.56,0,7.9-3.08,7.9-7.32s-3.34-7.32-7.9-7.32-7.9,3.08-7.9,7.32S16.7,19.32,21.26,19.32Zm0-3.82A3.185,3.185,0,0,1,18.12,12a3.159,3.159,0,1,1,6.28,0A3.185,3.185,0,0,1,21.26,15.5ZM30.88,19H41.92V15.34H35.6V5H30.88Zm12.34,0H54.26V15.34H47.94V5H43.22Zm19.48.32c4.56,0,7.9-3.08,7.9-7.32s-3.34-7.32-7.9-7.32S54.8,7.76,54.8,12,58.14,19.32,62.7,19.32Zm0-3.82A3.185,3.185,0,0,1,59.56,12a3.159,3.159,0,1,1,6.28,0A3.185,3.185,0,0,1,62.7,15.5ZM90.12,5l-2.58,8.06L85.1,5H80.76l-2.58,7.96L75.74,5H70.88l4.48,14h5.06l2.38-7.48L85.06,19h5.06L94.6,5Z" transform="translate(418.574 107.378)"/>
    <path id="Path_37" data-name="Path 37" class="cls-2" d="M3.325,4.85h.5v-23.4h-.5Z" transform="translate(564.574 126.564)"/>
    <path id="Path_38" data-name="Path 38" class="cls-2" d="M2.44,0H7.98c4.44,0,7.44-2.92,7.44-7s-3-7-7.44-7H2.44ZM3.46-.92V-13.08H7.9c3.96,0,6.5,2.52,6.5,6.08S11.86-.92,7.9-.92ZM29.22,0h1.1L23.88-14H22.86L16.42,0h1.1L19.3-3.94h8.12ZM19.7-4.8l3.66-8.08L27.04-4.8ZM36.54.1c3.46,0,5.04-1.72,5.04-3.7,0-5.08-8.74-2.6-8.74-6.8,0-1.54,1.22-2.8,3.94-2.8a6.919,6.919,0,0,1,3.84,1.18l.38-.82a7.51,7.51,0,0,0-4.22-1.26c-3.44,0-4.96,1.74-4.96,3.72,0,5.16,8.74,2.64,8.74,6.84,0,1.52-1.24,2.74-4.04,2.74A6.657,6.657,0,0,1,31.9-2.56l-.46.76A7.177,7.177,0,0,0,36.54.1ZM55.42-14v6.44H46.06V-14H45.04V0h1.02V-6.66h9.36V0h1.02V-14ZM69.64-7.22a3.193,3.193,0,0,0,2.34-3.2c0-2.32-1.82-3.58-4.82-3.58H61.32V0h6.24C71,0,72.72-1.34,72.72-3.7A3.368,3.368,0,0,0,69.64-7.22Zm-2.52-5.9c2.42,0,3.82.94,3.82,2.78,0,1.86-1.4,2.8-3.82,2.8H62.34v-5.58ZM67.56-.88H62.34V-6.66h5.22c2.68,0,4.14.88,4.14,2.88C71.7-1.76,70.24-.88,67.56-.88ZM82.3.1A7.009,7.009,0,0,0,89.58-7a7.009,7.009,0,0,0-7.28-7.1A7.009,7.009,0,0,0,75.02-7,7.009,7.009,0,0,0,82.3.1Zm0-.94A6.051,6.051,0,0,1,76.04-7a6.051,6.051,0,0,1,6.26-6.16A6.046,6.046,0,0,1,88.54-7,6.046,6.046,0,0,1,82.3-.84ZM103.38,0h1.1L98.04-14H97.02L90.58,0h1.1l1.78-3.94h8.12ZM93.86-4.8l3.66-8.08L101.2-4.8ZM117.9,0l-3.5-4.9a4.3,4.3,0,0,0,3.28-4.38c0-2.96-2.12-4.72-5.64-4.72h-5.02V0h1.02V-4.58h4a9.883,9.883,0,0,0,1.36-.1L116.74,0Zm-9.86-5.48v-7.6h4c3,0,4.6,1.38,4.6,3.8,0,2.4-1.6,3.8-4.6,3.8ZM121.42,0h5.54c4.44,0,7.44-2.92,7.44-7s-3-7-7.44-7h-5.54Zm1.02-.92V-13.08h4.44c3.96,0,6.5,2.52,6.5,6.08s-2.54,6.08-6.5,6.08Z" transform="translate(575.694 126.564)"/>
  </g>
</svg>
