<svg xmlns="http://www.w3.org/2000/svg" fill="url(#linear-gradient)" width="36" height="36" viewBox="0 0 36 36">
 <defs>
    <linearGradient id="linear-gradient" x1="0.165" y1="0.95" x2="0.814" y2="0.239" gradientUnits="objectBoundingBox">
      <stop offset="0" stop-color="#ff512f"/>
      <stop offset="1" stop-color="#f09819"/>
    </linearGradient>
  </defs>
  <path id="Icon_awesome-user-alt" data-name="Icon awesome-user-alt" d="M18,20.25A10.125,10.125,0,1,0,7.875,10.125,10.128,10.128,0,0,0,18,20.25Zm9,2.25H23.126a12.24,12.24,0,0,1-10.252,0H9a9,9,0,0,0-9,9v1.125A3.376,3.376,0,0,0,3.375,36h29.25A3.376,3.376,0,0,0,36,32.625V31.5A9,9,0,0,0,27,22.5Z"/>
</svg>
